/* XPM */
static char *_7dec5d98521424a8493bc34d8d9dfc1WkvEH0TijMpFhgNe[] = {
/* columns rows colors chars-per-pixel */
"64 64 20 1 ",
"  c gray22",
". c #2C2C2C",
"X c #202020",
"o c gray33",
"O c #C80000",
"+ c #A40000",
"@ c #880000",
"# c #BC0000",
"$ c #B00000",
"% c #980000",
"& c #EC0000",
"* c #700000",
"= c #4C0000",
"- c #640000",
"; c #7C0000",
": c #580000",
"> c #484848",
", c #D40000",
"< c #400000",
"1 c white",
/* pixels */
" ..... ...... .X.......      .........       ....XXX..  .....Xo ",
"OOO+++++++@.. ####$$$$++++%%%%%%%%@.X OOOO$$$$$+++++++%%%%%%@. &",
"$%%#*@#*$@=X. #+*+*+*+-+;+;+-+-+$@:X.XO@$%$%%$:$-$%$*%@-$;$@-X>&",
"@-@*@;:@*:=X. #+**@*:@@:;@@:;@:@;:=X. O@@-=@*:*@-*@@*@-*@=@:=X>,",
"-@@:;@@:@==X. $*+@*@:@*@:@:*-@:;-:=X..O:@=*@=@:@-@*@=@;-@-@:=X>,",
"@-*;-@:*@:=X. ++*@**;@:*:@*:;-*:@:=XX.+:@-@*=@::@@:@*@@-@=@*=X>O",
"-@@:@;:;:==X..$$*@:@:@:@:;*:-@:;-:=XX.;;@=*@-*:*-@*@=@-*@-@:=X>#",
"@:*=:-=:*:=XX ;;::=*::*:=:*:*:=*::=XX.$::=::=*=:=*=:=*==:*:*=X>#",
"===========XX.-====================XX.*==========:=======:===X>;",
"XXXXXXXXXXXXX .XXXXXXXXXXXXXXXXXXXXX. XXXXXXXXXXXXXXXXXXXXXXXX>>",
"XXX....XXXXX.X.......XXX ...XX...... X.    >>>>  ..XXX X ... Xo ",
"$++++++++++++@. .###$$$$$$$$++++++++++++%%%%%%%%%%@.X ##$$$$$$&,",
"*%;-%-;*%=%*@=X. #:%$-+=*+**$;@*-*@*@*@-$=$*;+$;$@=X.X#$-%*%*%$@",
"*@-**=@*=*@@:=X..$%:@-@@*@=@:=*@-@-@=@@*=@*@:*@:@:=X. #%-@*-@;@+",
"@*;=@-**;=@*:=XX.$:@*;**=**:@*=@*-=-**@=*-@:@:@@::=X..$-@@@-@-*+",
"*@*--*-@;=@=:=XX.$:@@-@=*@=:@=*@-*-@=@*=@=@:*:@:@:=XX.$%-@-@;-+@",
"=@:*-;=@=*@@:=X. $%=@-@*=*=*:=@*-=-@=*=*@=*@:*@:@:=XX.%-@@=@-**+",
"=:=-:;:;:=;::=X. %@:*=:;:*=:*=:;:;=*:**=;::*=:;:*:=X. %@-:=:;:*$",
"==============X. @=================================X.X@=======<=",
"XXXXXXXXXXXXXXX.X.XXXXXXXXXXXXXXXXXXXXXXXXXXXXXXXXXX. .XXXXXXX..",
".XX. X X..XXXX.. ... X.X.X ... X ..XXX.... XXX.... . X XXX ...oo",
"##$$+++++++++%%%%%%%%%%%%@.  ###$$$$$$$++++++++%%%%%%%%%%%%%@.o&",
"*%+-+-+-%*%*%$*%*%*+%=%$:=X. #+:#@%*@%*%;%-=@*:*@-*@;*@-*@=@=Xo&",
"%*@;@-:*@@*;*@*=@:@*=*@:%=X.>#+;@=@=*:;*=@=*@=@:@-@*@=@;-@-:=X &",
"=@@:*=@=@:@*;@=*@:*@*=-@:=X >#+-@-@=@:;@-@-@*=@::@;:;*@@-@=:=X>#",
"%*@=@=:*@*:-@-*=-@=@*=@:==X >#:@:;*=*;:@=*=*@-*:*-@*@=@-*@-:=X>#",
":=@=*-@=@=@=@*=*@*=@=*--%=X. %$:@:@*@*:@=@=::=@=@=@=@@*==:*:=Xo#",
"@=:::=:=::*=*::*::=:;:;::=XX $@:;:*=::::=*:*=@=:@=:*=@=@=@::=X>O",
";=========================XX @===============================X>+",
"XXXXXXXXXXXXXXXXXXXXXXXXXXX...XXXXXXXXXXXXXXXXXXXXXXXXXXXXXXXX>>",
"   ..X.XXX. >>   ....XXX.XXX ... X . ..X.X..  ...X.... X ... Xoo",
"+%%%%%%%@.X #$$$$++++++++++++%%%%%%%%@.  ##$$$++++++++++++++++##",
"@%;$%%$@=X.X#@=@:@@=@*@@:@*=@@=@@:@-@=X. #@-@:@@=@-*-@:@*@-@:@+$",
"*@;@-@*:=X. $=@-*@-@;:@**:**@*=@:*@=@=X  $@=@:@*=@*@-**;:;-;*:+;",
"@;-@-;@:=X.X$=@@-;@:@:@*@=@=**@*:;@-@=X >$@-@:@*@*@@-@:;*@;-@:@;",
"-@;@;-*:=X. $;=@-@-=;***:*@=@*=*;:*@-=X >$-@@:@=@@--@-@*;;*-:*+@",
"-@-@-;@:=X..$=@-=;@:**@*@:*==;=@;:@-@=X. $@-@@:@**-@-@:;*@-*@:+@",
"*;::;:::=X..;=@@=@-:@:@=@=*=@*=;:;@=-=X. $@=@:@@*@*@-@:;:;-@@:**",
"=========X..@=========================X..@====================<<",
"XXXXXXXXXX. .XXXXXXXXXXXXXXXXXXXXXXXXXX...XXXXXX.XXXXXXXXXXXXX..",
" X.XX..XXXX..XXX.....  ..XXX ... X.X.X.. . X . >>  ..X . . X Xo>",
"#$$$$$+++++++++%%%%%%%%%%%%%%@X X##$$$$+++++++++++%%%%%%%%%%@. &",
"@**@=@@-;@-@:*@=@-@*@=@=@@-:@=X. #@@=@=@=@:@=@*=;*:@*-@-;:*@=Xo,",
"@=@*=@*;-@=*=@;=@=*;*=@-@-@:;=X..$*@=*=-=*=;-@=@=@:*:@*-;@=*=X>,",
"*=@=*:=@=@*-*@=;**=-@=;=*=**:=XX.$*@==*@-=@-=;@=@::@:@-@:*=@=X>,",
"@*@*=@*-;@-@=*@=@=*@=;@-@@@:-=XX.$@=@*=@=@:;--=*=@-*;*;-:@*@=X ,",
"@=*@=@=@=@=@:@==@=*-@-*=;=*:@=XX $@==@=-=@=@=;=@=*:@:-@-;*=:=Xo,",
"@=@=*:*;-@***@;=*-==@=@:;-@:@=XX $:@=*=@=-@-=;:*=@:@:@-;:@=@=X O",
"==============================X. @===========================Xo+",
"XXXXXXXXXXXXXXXXXXXXXXXXXXXXXXX.X.XXXXXXXXXXXXXXXXXXXXXXXXXXXX >",
" X . .... >> . X . ..XXX.. ..X.. X ........     ....XXXXXX.. .o ",
"++++%%%%%%%%%%%@. .####$$$$$++++++%%%%%%%%%%@.X ####$$$+++++++,,",
"=@@=;=@-$-@=@-@=X..#@@@@=@=@-@=@=@;@=@=@=@:==X. $@=*@=@:@:@=@:;+",
"-@-@=;-=@=-=*=*=X..$-@:@=:=-;-@*=*;=-*:*=@=@=X. #=@=@:@:*@:@*=+;",
"=-@=;=-@-=@*=;-=X..%--:@=--@=@=@@=@=@=*=**=:=X. #=@::@@*:*:=:*+;",
"=;==@=@-@=-:=@==X.X%@=:@=@=@-;=@=*-=@=@*=:;==X. #@==@*::@:@=:@;%",
"-@=@=*@=@-=*@-*=X. $=@@=@-:*=-=@=@=--=*:=*:==X..#=@*@:@*::=@:@-+",
"--=;;=;=-=@=@=;=X..$=@:@=--*=;=*=@-=@*=@=@=*=XX.#=@=:=@:@:==@=-+",
"=@==*=--@=@=:*-=X. $@=:@=@=*=@=@:=@=-@=*:*=*=XX.$===@=@:@:@=@:;%",
"================X..@=========================X. @===============",
"XXXXXXXXXXXXXXXXX. .XXXXXXXXXXXXXXXXXXXXXXXXXXX..XXXXXXXXXXXXX..",
"X XXX.....  X....     ... ... ..X....XX.XX..XXX ..X ....XXX... o",
">>>>>>>>>>>>>>>>>>>>>>>>>>>>>>>>>>>>>>>>>>>>>>>>>>>>>>>>>>>>>>oo",
"                                                                "
};
